<svg width="176" height="194" viewBox="0 0 176 194" fill="none" xmlns="http://www.w3.org/2000/svg">
<path d="M141.575 20.1444C103.146 20.1444 76.7565 0.238281 58.2394 0.238281C39.7222 0.238281 0.832275 10.883 0.832275 96.0686C0.832275 181.254 53.1503 193.755 73.5175 193.755C168.892 193.76 209.632 20.1444 141.575 20.1444V20.1444Z" fill="#F3F3F1"/>
<path d="M98.0781 12.8594L102.007 8.9309L109.864 16.7878L105.935 20.7163L98.0781 12.8594Z" fill="#A4AFC1"/>
<path d="M120.664 35.4443L124.592 31.5159L132.449 39.3728L128.521 43.3013L120.664 35.4443Z" fill="#A4AFC1"/>
<path d="M119.681 16.7852L127.538 8.92821L131.467 12.8567L123.61 20.7136L119.681 16.7852Z" fill="#A4AFC1"/>
<path d="M124.225 123.385C131.128 123.385 136.725 117.789 136.725 110.885C136.725 103.981 131.128 98.3848 124.225 98.3848C117.321 98.3848 111.724 103.981 111.724 110.885C111.724 117.789 117.321 123.385 124.225 123.385Z" fill="#EFEFEF"/>
<path d="M139.503 140.053H108.946C102.807 140.053 97.835 145.025 97.835 151.164V159.498H150.614V151.164C150.614 145.025 145.642 140.053 139.503 140.053Z" fill="#EFEFEF"/>
<path d="M25.6111 45.6055V81.7176C25.6111 87.8289 30.6112 92.829 36.7225 92.829H65.8899L83.946 109.496V92.829H95.0574C101.169 92.829 106.169 87.8289 106.169 81.7176V45.6055C106.169 39.4943 101.169 34.4941 95.0574 34.4941H36.7225C30.6112 34.4941 25.6111 39.4943 25.6111 45.6055Z" fill="#2FDF84"/>
<path d="M43.6668 131.718C47.5022 131.718 50.6114 128.609 50.6114 124.774C50.6114 120.938 47.5022 117.829 43.6668 117.829C39.8314 117.829 36.7222 120.938 36.7222 124.774C36.7222 128.609 39.8314 131.718 43.6668 131.718Z" fill="#EFEFEF"/>
<path d="M50.6117 145.609H36.7225C30.5834 145.609 25.6111 150.582 25.6111 156.721V159.499H61.7232V156.721C61.7232 150.582 56.7508 145.609 50.6117 145.609Z" fill="#EFEFEF"/>
<path d="M124.225 110.885C124.225 106.268 126.753 102.285 130.475 100.118C128.63 99.0459 126.514 98.3848 124.225 98.3848C117.319 98.3848 111.724 103.979 111.724 110.885C111.724 117.791 117.319 123.385 124.225 123.385C126.514 123.385 128.63 122.724 130.475 121.652C126.753 119.485 124.225 115.502 124.225 110.885Z" fill="#D5DBE1"/>
<path d="M121.447 140.053H108.946C102.807 140.053 97.835 145.025 97.835 151.164V159.498H110.335V151.164C110.335 145.025 115.308 140.053 121.447 140.053Z" fill="#D5DBE1"/>
<path d="M38.1114 81.7176V45.6055C38.1114 39.4943 43.1115 34.4941 49.2228 34.4941H36.7225C30.6112 34.4941 25.6111 39.4943 25.6111 45.6055V81.7176C25.6111 87.8289 30.6112 92.829 36.7225 92.829H49.2228C43.1115 92.829 38.1114 87.8289 38.1114 81.7176Z" fill="#00B871"/>
<path d="M78.3902 92.8301H65.8899L83.9459 109.497V97.958L78.3902 92.8301Z" fill="#00B871"/>
<path d="M49.2228 145.609H36.7225C30.5834 145.609 25.6111 150.582 25.6111 156.721V159.499H38.1114V156.721C38.1114 150.582 43.0838 145.609 49.2228 145.609Z" fill="#D5DBE1"/>
<path d="M124.225 127.552C115.036 127.552 107.558 120.074 107.558 110.885C107.558 101.696 115.036 94.2178 124.225 94.2178C133.414 94.2178 140.892 101.696 140.892 110.885C140.892 120.074 133.414 127.552 124.225 127.552ZM124.225 102.551C119.63 102.551 115.891 106.29 115.891 110.885C115.891 115.479 119.63 119.218 124.225 119.218C128.819 119.218 132.558 115.479 132.558 110.885C132.558 106.29 128.819 102.551 124.225 102.551Z" fill="black"/>
<path d="M150.614 163.664C148.314 163.664 146.447 161.798 146.447 159.497V151.164C146.447 147.336 143.331 144.219 139.503 144.219H108.946C105.119 144.219 102.002 147.336 102.002 151.164V159.497C102.002 161.798 100.135 163.664 97.835 163.664C95.5349 163.664 93.6682 161.798 93.6682 159.497V151.164C93.6682 142.736 100.518 135.886 108.946 135.886H139.503C147.931 135.886 154.781 142.736 154.781 151.164V159.497C154.781 161.798 152.914 163.664 150.614 163.664Z" fill="black"/>
<path d="M83.9457 113.664C82.9179 113.664 81.9068 113.286 81.1179 112.558L64.2619 96.9966H36.7223C28.2943 96.9966 21.4441 90.1464 21.4441 81.7184V45.6063C21.4441 37.1783 28.2943 30.3281 36.7223 30.3281H95.0572C103.485 30.3281 110.335 37.1783 110.335 45.6063V81.7184C110.335 90.1464 103.485 96.9966 95.0572 96.9966H88.1125V109.497C88.1125 111.152 87.1292 112.647 85.618 113.319C85.0791 113.547 84.5124 113.664 83.9457 113.664ZM36.7223 38.6617C32.8944 38.6617 29.7776 41.7784 29.7776 45.6063V81.7184C29.7776 85.5463 32.8944 88.663 36.7223 88.663H65.8897C66.9342 88.663 67.9453 89.0575 68.7176 89.7686L79.779 99.98V92.8298C79.779 90.5297 81.6457 88.663 83.9457 88.663H95.0572C98.885 88.663 102.002 85.5463 102.002 81.7184V45.6063C102.002 41.7784 98.885 38.6617 95.0572 38.6617H36.7223Z" fill="black"/>
<path d="M43.6668 135.886C37.5389 135.886 32.5554 130.902 32.5554 124.774C32.5554 118.647 37.5389 113.663 43.6668 113.663C49.7948 113.663 54.7782 118.647 54.7782 124.774C54.7782 130.902 49.7948 135.886 43.6668 135.886ZM43.6668 121.997C42.139 121.997 40.889 123.247 40.889 124.774C40.889 126.302 42.139 127.552 43.6668 127.552C45.1946 127.552 46.4447 126.302 46.4447 124.774C46.4447 123.247 45.1946 121.997 43.6668 121.997Z" fill="black"/>
<path d="M61.7229 163.664C59.4229 163.664 57.5562 161.798 57.5562 159.497V156.72C57.5562 152.892 54.4394 149.775 50.6115 149.775H36.7223C32.8944 149.775 29.7776 152.892 29.7776 156.72V159.497C29.7776 161.798 27.9109 163.664 25.6109 163.664C23.3108 163.664 21.4441 161.798 21.4441 159.497V156.72C21.4441 148.292 28.2943 141.441 36.7223 141.441H50.6115C59.0395 141.441 65.8897 148.292 65.8897 156.72V159.497C65.8897 161.798 64.023 163.664 61.7229 163.664Z" fill="black"/>
<path d="M83.9456 77.5508C82.9844 77.5508 82.0177 77.223 81.2344 76.5452C79.4899 75.0452 79.2843 72.4173 80.7844 70.6673L86.7901 63.6616L80.7844 56.6503C79.2843 54.9058 79.4899 52.2724 81.2344 50.7723C82.9844 49.2778 85.6123 49.4778 87.1123 51.2223L95.4459 60.9448C96.7848 62.506 96.7848 64.806 95.4459 66.3727L87.1123 76.0952C86.2845 77.0564 85.1178 77.5508 83.9456 77.5508V77.5508Z" fill="black"/>
<path d="M47.8334 77.5511C46.6612 77.5511 45.4945 77.0567 44.6722 76.0955L36.3387 66.3731C34.9997 64.8119 34.9997 62.5118 36.3387 60.9451L44.6722 51.2227C46.1778 49.4782 48.8001 49.2726 50.5502 50.7726C52.3002 52.2727 52.5002 54.9005 51.0002 56.6506L44.9889 63.6619L50.9946 70.6732C52.4947 72.4177 52.2891 75.0511 50.5446 76.5511C49.7612 77.2178 48.7946 77.5511 47.8334 77.5511Z" fill="black"/>
<path d="M64.5064 80.3302C64.3563 80.3302 64.1952 80.3247 64.0397 80.308C61.7563 80.0524 60.1062 77.9913 60.3618 75.7023L63.1396 50.7016C63.3897 48.4183 65.4175 46.7738 67.7398 47.0182C70.0232 47.2738 71.6732 49.3349 71.4176 51.6239L68.6398 76.6246C68.4065 78.7524 66.6009 80.3302 64.5064 80.3302Z" fill="black"/>
</svg>
