<svg width="33" height="32" viewBox="0 0 33 32" fill="none" xmlns="http://www.w3.org/2000/svg">
<path d="M16.3701 0.625977C7.37012 0.625977 0.370117 7.62598 0.370117 16.626C0.370117 27.126 9.87012 31.626 11.3701 31.626C12.3701 31.626 12.3701 31.126 12.3701 30.626V28.126C8.87012 29.126 7.37012 27.126 6.87012 25.626C6.87012 25.626 6.87012 25.126 5.87012 24.126C5.37012 23.626 3.37012 22.626 5.37012 22.626C6.87012 22.626 7.87012 24.626 7.87012 24.626C9.37012 26.626 11.3701 26.126 12.3701 25.626C12.3701 24.626 13.3701 23.626 13.3701 23.626C9.37012 23.126 6.37012 21.626 6.37012 16.126C6.37012 14.126 6.87012 12.626 7.87012 11.626C7.87012 11.626 6.87012 9.62598 7.87012 7.12598C7.87012 7.12598 10.3701 7.12598 12.3701 9.12598C13.8701 8.12598 18.8701 8.12598 20.3701 9.12598C22.3701 7.12598 24.8701 7.12598 24.8701 7.12598C25.8701 10.626 24.8701 11.626 24.8701 11.626C25.8701 12.626 26.3701 14.126 26.3701 16.126C26.3701 21.626 22.8701 23.126 19.3701 23.626C19.8701 24.126 20.3701 25.126 20.3701 26.626V30.626C20.3701 31.126 20.3701 31.626 21.3701 31.626C22.8701 31.626 32.3701 27.126 32.3701 16.626C32.3701 7.62598 25.3701 0.625977 16.3701 0.625977Z" fill="black"/>
</svg>
