<svg width="33" height="33" viewBox="0 0 33 33" fill="none" xmlns="http://www.w3.org/2000/svg">
<path d="M16.4292 0.773438C7.59253 0.773438 0.429199 7.93677 0.429199 16.7734C0.429199 25.6101 7.59253 32.7734 16.4292 32.7734C25.2659 32.7734 32.4292 25.6101 32.4292 16.7734C32.4292 7.93677 25.2659 0.773438 16.4292 0.773438ZM12.5125 23.4051H9.27253V12.9784H12.5125V23.4051ZM10.8725 11.6984C9.8492 11.6984 9.18753 10.9734 9.18753 10.0768C9.18753 9.16177 9.8692 8.45844 10.9142 8.45844C11.9592 8.45844 12.5992 9.16177 12.6192 10.0768C12.6192 10.9734 11.9592 11.6984 10.8725 11.6984ZM24.3459 23.4051H21.1059V17.6268C21.1059 16.2818 20.6359 15.3684 19.4642 15.3684C18.5692 15.3684 18.0375 15.9868 17.8025 16.5818C17.7159 16.7934 17.6942 17.0934 17.6942 17.3918V23.4034H14.4525V16.3034C14.4525 15.0018 14.4109 13.9134 14.3675 12.9768H17.1825L17.3309 14.4251H17.3959C17.8225 13.7451 18.8675 12.7418 20.6159 12.7418C22.7475 12.7418 24.3459 14.1701 24.3459 17.2401V23.4051Z" fill="#0E76A8"/>
</svg>
