<svg width="176" height="194" viewBox="0 0 176 194" fill="none" xmlns="http://www.w3.org/2000/svg">
<path d="M34.5384 173.849C72.9661 173.849 99.355 193.755 117.872 193.755C136.388 193.755 175.277 183.11 175.277 97.9272C175.277 12.7438 122.961 0.238281 102.594 0.238281C7.2217 0.238281 -33.5172 173.849 34.5384 173.849V173.849Z" fill="#F3F3F1"/>
<path d="M158.841 36.876L162.769 32.9476L170.626 40.8043L166.697 44.7327L158.841 36.876Z" fill="#A4AFC1"/>
<path d="M136.26 14.2939L140.188 10.3656L148.045 18.2223L144.116 22.1507L136.26 14.2939Z" fill="#A4AFC1"/>
<path d="M158.86 19.2295L166.717 11.3728L170.645 15.3011L162.788 23.1579L158.86 19.2295Z" fill="#A4AFC1"/>
<path d="M150.5 56.7234V65.0568H25.5V56.7234C25.5 50.6123 30.5 45.6123 36.6111 45.6123H139.389C145.5 45.6123 150.5 50.6123 150.5 56.7234Z" fill="#2FDF84"/>
<path d="M150.5 65.0547V148.388C150.5 154.499 145.5 159.499 139.389 159.499H36.6111C30.5 159.499 25.5 154.499 25.5 148.388V65.0547H150.5Z" fill="#EFEFEF"/>
<path d="M118.556 98.3889C136.198 98.3889 150.5 84.0869 150.5 66.4445C150.5 48.802 136.198 34.5 118.556 34.5C100.913 34.5 86.6113 48.802 86.6113 66.4445C86.6113 84.0869 100.913 98.3889 118.556 98.3889Z" fill="#EFEFEF"/>
<path d="M49.1111 45.6123H36.6111C30.5 45.6123 25.5 50.6123 25.5 56.7234V65.0568H38V56.7234C38 50.6123 43 45.6123 49.1111 45.6123Z" fill="#00B871"/>
<path d="M38 148.388V65.0547H25.5V148.388C25.5 154.499 30.5 159.499 36.6111 159.499H49.1111C43 159.499 38 154.499 38 148.388Z" fill="#D5DBE1"/>
<path d="M99.1113 66.4445C99.1113 50.9445 110.156 38.0278 124.806 35.1222C122.784 34.7167 120.695 34.5 118.556 34.5C100.911 34.5 86.6113 48.8 86.6113 66.4445C86.6113 84.0889 100.911 98.3889 118.556 98.3889C120.695 98.3889 122.784 98.1723 124.806 97.7667C110.156 94.8612 99.1113 81.9445 99.1113 66.4445V66.4445Z" fill="#D5DBE1"/>
<path d="M118.555 102.556C98.6438 102.556 82.4438 86.3562 82.4438 66.4451C82.4438 46.534 98.6438 30.334 118.555 30.334C138.466 30.334 154.666 46.534 154.666 66.4451C154.666 86.3562 138.466 102.556 118.555 102.556ZM118.555 38.6673C103.238 38.6673 90.7772 51.1284 90.7772 66.4451C90.7772 81.7618 103.238 94.2229 118.555 94.2229C133.872 94.2229 146.333 81.7618 146.333 66.4451C146.333 51.1284 133.872 38.6673 118.555 38.6673Z" fill="black"/>
<path d="M104.667 36.001H113V96.8899H104.667V36.001Z" fill="black"/>
<path d="M124.11 36.001H132.444V96.8899H124.11V36.001Z" fill="black"/>
<path d="M88.1108 52.5547H149.005V60.888H88.1108V52.5547Z" fill="black"/>
<path d="M88.1108 72H149.005V80.3334H88.1108V72Z" fill="black"/>
<path d="M139.389 163.668H36.6113C28.1835 163.668 21.3335 156.818 21.3335 148.39V56.7231C21.3335 48.2953 28.1835 41.4453 36.6113 41.4453H74.6668C76.9668 41.4453 78.8335 43.312 78.8335 45.612C78.8335 47.912 76.9668 49.7786 74.6668 49.7786H36.6113C32.7835 49.7786 29.6668 52.8953 29.6668 56.7231V148.39C29.6668 152.218 32.7835 155.334 36.6113 155.334H139.389C143.217 155.334 146.333 152.218 146.333 148.39V102.945C146.333 100.645 148.2 98.7786 150.5 98.7786C152.8 98.7786 154.667 100.645 154.667 102.945V148.39C154.667 156.818 147.817 163.668 139.389 163.668Z" fill="black"/>
<path d="M70.0001 69.2211H25.5002C23.2002 69.2211 21.3335 67.3544 21.3335 65.0544C21.3335 62.7544 23.2002 60.8877 25.5002 60.8877H70.0001C72.3001 60.8877 74.1668 62.7544 74.1668 65.0544C74.1668 67.3544 72.3001 69.2211 70.0001 69.2211Z" fill="black"/>
<path d="M97.7223 138.667C96.7612 138.667 95.7945 138.334 95.0112 137.662C93.2667 136.162 93.0612 133.534 94.5612 131.784L100.567 124.778L94.5612 117.767C93.0612 116.023 93.2667 113.389 95.0112 111.889C96.7556 110.395 99.389 110.595 100.889 112.339L109.222 122.062C110.561 123.623 110.561 125.923 109.222 127.49L100.889 137.212C100.061 138.173 98.8945 138.667 97.7223 138.667Z" fill="black"/>
<path d="M61.6111 138.667C60.4389 138.667 59.2722 138.173 58.45 137.212L50.1167 127.49C48.7778 125.928 48.7778 123.628 50.1167 122.062L58.45 112.339C59.9556 110.595 62.5834 110.395 64.3278 111.889C66.0722 113.389 66.2778 116.017 64.7778 117.767L58.7667 124.778L64.7722 131.79C66.2722 133.534 66.0667 136.167 64.3222 137.667C63.5389 138.334 62.5722 138.667 61.6111 138.667Z" fill="black"/>
<path d="M75.5062 147.001C75.1895 147.001 74.8784 146.967 74.5618 146.89C72.3229 146.373 70.9229 144.14 71.4395 141.895L79.7729 105.784C80.2895 103.54 82.5618 102.134 84.7673 102.662C87.0062 103.178 88.4062 105.412 87.8895 107.656L79.5562 143.767C79.1118 145.701 77.4006 147.001 75.5062 147.001V147.001Z" fill="black"/>
</svg>
