<svg width="176" height="194" viewBox="0 0 176 194" fill="none" xmlns="http://www.w3.org/2000/svg">
<path d="M34.7646 20.1443C73.1934 20.1443 99.5829 0.238281 118.1 0.238281C136.617 0.238281 175.507 10.883 175.507 96.0685C175.507 181.254 123.189 193.754 102.822 193.754C7.44721 193.76 -33.2927 20.1443 34.7646 20.1443V20.1443Z" fill="#F3F3F1"/>
<path d="M25.7256 72.8292C21.1311 72.8292 17.3921 69.0902 17.3921 64.4957C17.3921 59.9011 21.1311 56.1621 25.7256 56.1621C30.3202 56.1621 34.0592 59.9011 34.0592 64.4957C34.0592 69.0902 30.3202 72.8292 25.7256 72.8292ZM25.7256 61.7178C24.1978 61.7178 22.9478 62.9623 22.9478 64.4957C22.9478 66.029 24.1978 67.2735 25.7256 67.2735C27.2535 67.2735 28.5035 66.029 28.5035 64.4957C28.5035 62.9623 27.2535 61.7178 25.7256 61.7178Z" fill="#A4AFC1"/>
<path d="M25.7253 101.162V148.386H41.0035L52.1149 107.351C52.1149 107.351 44.0147 101.162 25.7253 101.162Z" fill="#2FDF84"/>
<path d="M150.729 137.275C150.729 137.275 110.45 159.497 93.7829 159.497C80.5048 159.497 53.1707 147.164 42.5593 142.164L50.8373 112.052L104.339 122.996C109.505 124.052 113.228 128.608 113.228 133.886V136.275C113.117 136.33 113.061 136.33 112.95 136.386H113.228V136.275C121.228 133.83 129.617 130.33 136.84 130.33C147.951 130.33 150.729 137.275 150.729 137.275Z" fill="#EFEFEF"/>
<path d="M113.227 136.274V136.385H112.95C113.061 136.33 113.116 136.33 113.227 136.274Z" fill="#EFEFEF"/>
<path d="M113.227 136.274V136.385H112.95C113.061 136.33 113.116 136.33 113.227 136.274Z" fill="#D5DBE1"/>
<path d="M25.7253 101.162V148.386H38.2257V102.273C34.7478 101.623 30.631 101.162 25.7253 101.162Z" fill="#00B871"/>
<path d="M125.728 133.886V136.275C131.367 134.552 137.189 132.33 142.667 131.152C141.028 130.675 139.151 130.33 136.839 130.33C133.306 130.33 129.495 131.175 125.589 132.313C125.667 132.83 125.728 133.352 125.728 133.886Z" fill="#D5DBE1"/>
<path d="M125.728 136.385V136.274C125.617 136.33 125.561 136.33 125.45 136.385H125.728Z" fill="#D5DBE1"/>
<path d="M55.0596 142.164L62.671 114.474L50.8373 112.052L42.5593 142.164C53.1707 147.164 80.5048 159.497 93.7829 159.497C95.5274 159.497 97.5774 159.209 99.7664 158.77C85.4827 156.086 64.1488 146.447 55.0596 142.164V142.164Z" fill="#D5DBE1"/>
<path d="M125.728 136.274V136.385H125.45C125.561 136.33 125.617 136.33 125.728 136.274Z" fill="#D5DBE1"/>
<path d="M41.0035 152.553H25.7254C23.4253 152.553 21.5586 150.686 21.5586 148.386V101.163C21.5586 98.8628 23.4253 96.9961 25.7254 96.9961C45.2036 96.9961 54.2705 103.757 54.6428 104.046C55.9873 105.074 56.5817 106.813 56.1373 108.446L45.0259 149.481C44.537 151.292 42.8869 152.553 41.0035 152.553ZM29.8921 144.22H37.8146L47.2481 109.38C44.3425 108.007 38.6646 105.963 29.8921 105.452V144.22Z" fill="black"/>
<path d="M93.7827 163.665C80.4212 163.665 54.8428 152.554 40.7869 145.937C38.7035 144.953 37.809 142.47 38.7924 140.387C39.7758 138.309 42.2591 137.414 44.337 138.392C67.182 149.159 85.2047 155.331 93.7827 155.331C105.05 155.331 130.628 143.159 144.034 136.137C142.49 135.253 140.189 134.498 136.839 134.498C131.961 134.498 125.928 136.509 120.1 138.448C113.639 140.603 106.961 142.831 100.727 142.831C89.0215 142.831 73.5655 137.264 72.9155 137.025C70.7488 136.237 69.6321 133.848 70.421 131.686C71.2154 129.52 73.6044 128.414 75.76 129.192C75.9045 129.247 90.4937 134.498 100.727 134.498C105.605 134.498 111.639 132.486 117.467 130.548C123.928 128.392 130.606 126.164 136.839 126.164C150.612 126.164 154.44 135.337 154.595 135.731C155.379 137.681 154.579 139.909 152.74 140.926C151.062 141.853 111.322 163.665 93.7827 163.665V163.665Z" fill="black"/>
<path d="M113.228 140.553C110.928 140.553 109.061 138.686 109.061 136.386V133.886C109.061 130.602 106.722 127.736 103.505 127.08L49.9983 116.135C47.7482 115.674 46.2926 113.474 46.7537 111.218C47.2148 108.963 49.4205 107.524 51.6705 107.974L105.177 118.919C112.255 120.363 117.394 126.663 117.394 133.891V136.391C117.394 138.686 115.528 140.553 113.228 140.553V140.553Z" fill="black"/>
<path d="M109.067 88.6614C108.75 88.6614 108.439 88.6281 108.122 88.5558C105.883 88.0392 104.483 85.8002 105 83.5613L113.333 47.4492C113.856 45.1992 116.122 43.8269 118.328 44.3214C120.567 44.838 121.967 47.077 121.45 49.3159L113.117 85.428C112.672 87.3614 110.961 88.6614 109.067 88.6614Z" fill="black"/>
<path d="M131.284 83.1068C130.145 83.1068 129.012 82.6457 128.184 81.729C126.645 80.0178 126.784 77.3844 128.495 75.84L138.945 66.4397L128.495 57.0395C126.784 55.5005 126.645 52.8671 128.184 51.1504C129.728 49.4393 132.362 49.3059 134.073 50.8393L147.962 63.3396C148.84 64.1341 149.34 65.2619 149.34 66.4397C149.34 67.6175 148.84 68.7453 147.962 69.5398L134.073 82.0401C133.273 82.7568 132.278 83.1068 131.284 83.1068Z" fill="black"/>
<path d="M95.1715 83.107C94.177 83.107 93.1826 82.757 92.3825 82.0403L78.4933 69.54C77.6155 68.7456 77.1155 67.6178 77.1155 66.4399C77.1155 65.2621 77.6155 64.1343 78.4933 63.3399L92.3825 50.8395C94.0992 49.3006 96.7271 49.434 98.2716 51.1507C99.8105 52.8618 99.6716 55.4952 97.9605 57.0397L87.5102 66.4399L97.9605 75.8402C99.6716 77.3791 99.8105 80.0125 98.2716 81.7292C97.4438 82.6459 96.3104 83.107 95.1715 83.107Z" fill="black"/>
</svg>
